# File created by Blade
# Date/Time:  Thu Jan 22 16:25:48 2015
# Frame Rate: 120.000 fps
#------------------------------------------------------
:FULLY-SPECIFIED
:DEGREES
745
root 3.828304 39.846480 8.508318 63.002672 15.301860 48.425453
RightUpLeg -31.406910 -18.985363 -43.734627
RightLeg -6.298909 -0.000000 0.000000
RightFoot -4.771924 -29.285838 10.664999
RightToeBase 10.540215 -0.000000 -0.000000
LeftUpLeg 15.590416 -28.859267 11.112987
LeftLeg 133.510741 -0.000000 -0.000000
LeftFoot 19.053183 18.558151 -30.958144
LeftToeBase 4.408354 -0.000000 -0.000000
Spine 14.180085 -6.945405 -5.664897
RightShoulder -15.075012 -5.857565 -47.395041
RightArm 55.171067 65.799830 29.724819
RightForeArm -0.621275 -0.000000 11.676318
RightHand 8.299916 0.000000 -11.748907
RightHandThumb1 -24.326973 -0.000000 -32.862282
LeftShoulder -34.526853 35.665433 -13.670332
LeftArm 24.448698 -22.424124 -82.943763
LeftForeArm 54.536142 -0.000000 10.857776
LeftHand -17.582523 -0.000000 -15.853776
LeftHandThumb1 -26.253704 0.000000 33.147579
Head -15.541120 -21.923193 -14.863317
746
root 3.832028 39.851824 8.508856 63.058523 15.330100 48.497976
RightUpLeg -31.416953 -19.114961 -43.716526
RightLeg -6.228728 -0.000000 0.000000
RightFoot -4.774818 -29.237943 10.595718
RightToeBase 10.515303 -0.000000 -0.000000
LeftUpLeg 15.698833 -28.774477 11.144239
LeftLeg 133.392615 -0.000000 -0.000000
LeftFoot 19.024028 18.555117 -31.076964
LeftToeBase 4.553127 -0.000000 -0.000000
Spine 14.156944 -6.890546 -5.699863
RightShoulder -15.083765 -5.855065 -47.379138
RightArm 55.359830 65.881323 30.003682
RightForeArm -0.752186 -0.000000 11.663270
RightHand 8.375863 -0.000000 -11.846520
RightHandThumb1 -24.326973 -0.000000 -32.862282
LeftShoulder -34.578684 35.629452 -13.672784
LeftArm 24.344216 -22.496255 -82.873740
LeftForeArm 54.523337 -0.000000 10.891691
LeftHand -17.564514 -0.000000 -15.896166
LeftHandThumb1 -26.253704 0.000000 33.147579
Head -15.549059 -21.960819 -14.787106
747
root 3.835486 39.857016 8.509817 63.106894 15.344634 48.571367
RightUpLeg -31.425469 -19.231674 -43.714270
RightLeg -6.161581 -0.000000 0.000000
RightFoot -4.782464 -29.192687 10.567742
RightToeBase 10.488707 -0.000000 -0.000000
LeftUpLeg 15.807520 -28.654447 11.152133
LeftLeg 133.262377 -0.000000 -0.000000
LeftFoot 19.006891 18.649736 -31.161414
LeftToeBase 4.730347 -0.000000 -0.000000
Spine 14.138353 -6.825185 -5.764565
RightShoulder -15.073266 -5.850050 -47.337947
RightArm 55.138114 65.880688 29.825666
RightForeArm -0.670860 -0.000000 11.646038
RightHand 8.393545 0.000000 -11.972767
RightHandThumb1 -24.326973 -0.000000 -32.862282
LeftShoulder -34.659149 35.644185 -13.702812
LeftArm 24.306332 -22.586359 -82.849906
LeftForeArm 54.566601 -0.000000 10.910085
LeftHand -17.458271 -0.000000 -15.854287
LeftHandThumb1 -26.253704 0.000000 33.147579
Head -15.540327 -22.016909 -14.673269
748
root 3.838562 39.861198 8.510204 63.147120 15.375336 48.634234
RightUpLeg -31.426036 -19.327385 -43.707199
RightLeg -6.089778 -0.000000 0.000000
RightFoot -4.828201 -29.165411 10.594817
RightToeBase 10.482234 -0.000000 -0.000000
LeftUpLeg 15.918508 -28.538151 11.192896
LeftLeg 133.137529 -0.000000 -0.000000
LeftFoot 19.011954 18.684630 -31.229660
LeftToeBase 4.756128 -0.000000 -0.000000
Spine 14.137906 -6.737542 -5.782417
RightShoulder -15.075895 -5.813806 -47.383396
RightArm 55.042452 65.907223 29.928912
RightForeArm -0.823982 -0.000000 11.781271
RightHand 8.573170 -0.000000 -11.983893
RightHandThumb1 -24.326973 -0.000000 -32.862282
LeftShoulder -34.754947 35.668890 -13.788347
LeftArm 24.287650 -22.600527 -82.782837
LeftForeArm 54.542209 -0.000000 10.994080
LeftHand -17.446480 -0.000000 -15.863647
LeftHandThumb1 -26.253704 0.000000 33.147579
Head -15.574699 -22.104547 -14.606777
749
root 3.842467 39.866140 8.510108 63.183945 15.394188 48.706738
RightUpLeg -31.404183 -19.411965 -43.732481
RightLeg -6.043457 -0.000000 0.000000
RightFoot -4.844808 -29.110877 10.610109
RightToeBase 10.369105 -0.000000 -0.000000
LeftUpLeg 16.038663 -28.397044 11.213338
LeftLeg 133.011925 -0.000000 -0.000000
LeftFoot 18.969069 18.758376 -31.309776
LeftToeBase 4.795042 -0.000000 -0.000000
Spine 14.137400 -6.681896 -5.829048
RightShoulder -15.087467 -5.826503 -47.374043
RightArm 55.228606 65.991021 30.215462
RightForeArm -0.823271 -0.000000 11.782844
RightHand 8.475945 -0.000000 -12.156803
RightHandThumb1 -24.326973 -0.000000 -32.862282
LeftShoulder -34.878625 35.736146 -13.890898
LeftArm 24.329123 -22.635454 -82.763813
LeftForeArm 54.496640 -0.000000 10.988475
LeftHand -17.404037 -0.000000 -15.745359
LeftHandThumb1 -26.253704 0.000000 33.147579
Head -15.545653 -22.172544 -14.580006
